<svg width="552" height="552" viewBox="0 0 552 552" fill="none" xmlns="http://www.w3.org/2000/svg">
<g opacity="0.2">
<path d="M275.986 59.1465L413.986 157.718V295.718H275.986V59.1465Z" fill="#D9E7FF"/>
<path d="M315.45 39.4238L78.8789 170.852V384.424L354.879 374.567L354.879 78.8524L315.45 39.4238Z" fill="#4B77E2"/>
<path d="M315.434 138.084L433.719 216.866V374.655L315.434 354.866V138.084Z" fill="#8DB9FF"/>
<path d="M354.879 216.863L394.307 236.578V295.72L354.879 285.863V216.863Z" fill="#D9E7FF"/>
<path d="M315.434 137.993L78.8622 354.85V384.422L197.148 374.565L315.434 354.85V137.993Z" fill="#D9E7FF"/>
<path d="M275.998 276.006V216.863L197.141 305.578L275.998 276.006Z" fill="#F5F9FF"/>
<path d="M39.4453 384.428L315.445 354.856L512.588 374.571V464.851L315.445 473.142H39.4453V384.428Z" fill="#8DB9FF"/>
<path d="M39.4453 473.142L315.445 354.856V482.999L39.4453 473.142Z" fill="#4B77E2"/>
<path d="M315.434 354.856L512.576 374.571V464.851L315.434 482.999V354.856Z" fill="#0F68D8"/>
</g>
</svg>
